<?xml version="1.0" standalone="no"?>
<!DOCTYPE svg PUBLIC "-//W3C//DTD SVG 20010904//EN"
 "http://www.w3.org/TR/2001/REC-SVG-20010904/DTD/svg10.dtd">
<svg version="1.0" xmlns="http://www.w3.org/2000/svg"
 width="200.000000pt" height="200.000000pt" viewBox="0 0 200.000000 200.000000"
 preserveAspectRatio="xMidYMid meet">

<g transform="translate(0.000000,200.000000) scale(0.100000,-0.100000)"
fill="#000000" stroke="none">
<path d="M338 1849 c-16 -9 -18 -26 -18 -127 0 -79 4 -122 12 -130 7 -7 35
-12 63 -12 101 0 102 -46 5 -146 l-70 -72 0 -538 0 -539 72 -72 72 -73 526 0
526 0 72 73 72 72 0 539 0 538 -70 72 c-97 100 -96 146 5 146 28 0 56 5 63 12
8 8 12 51 12 130 0 106 -2 118 -19 128 -27 14 -1299 13 -1323 -1z m322 -271
l0 -181 -65 -68 -65 -67 0 -408 0 -408 27 -28 27 -28 416 0 416 0 27 28 27 28
0 408 0 408 -65 67 -65 68 0 181 0 182 120 0 120 0 0 -50 0 -50 -58 0 c-32 0
-63 -5 -70 -12 -8 -8 -12 -47 -12 -112 l0 -99 65 -68 65 -67 0 -472 0 -471
-58 -60 -58 -59 -454 0 -454 0 -58 59 -58 60 0 471 0 472 65 67 65 68 0 99 c0
65 -4 104 -12 112 -7 7 -38 12 -70 12 l-58 0 0 50 0 50 120 0 120 0 0 -182z
m523 113 l57 -60 0 -77 0 -78 -52 -53 c-49 -50 -55 -53 -102 -53 -44 0 -55 4
-88 37 -35 34 -38 42 -38 91 l0 53 48 -3 c45 -3 47 -4 50 -36 4 -42 26 -51 58
-22 35 33 33 94 -3 132 -25 26 -32 28 -107 28 -77 0 -82 -1 -113 -32 -31 -30
-33 -37 -33 -97 l0 -65 105 -107 106 -107 -3 -88 -3 -89 -45 0 -45 0 -5 72 -5
73 -102 103 -103 102 0 105 0 104 62 63 62 63 122 0 121 0 56 -59z m207 -938
c0 -215 -2 -249 -17 -265 -15 -17 -40 -18 -371 -18 -317 0 -357 2 -374 17 -16
15 -18 37 -18 265 l0 248 390 0 390 0 0 -247z"/>
</g>
</svg>