<svg xmlns="http://www.w3.org/2000/svg" version="1.0" width="368.000000pt" height="370.000000pt" viewBox="0 0 368.000000 370.000000" preserveAspectRatio="xMidYMid meet">

<g transform="translate(0.000000,370.000000) scale(0.100000,-0.100000)" fill="#000000" stroke="none">
<path d="M3260 3445 c-36 -7 -137 -24 -225 -39 -217 -37 -309 -65 -381 -119 -50 -37 -1334 -1325 -1342 -1345 -1 -4 140 -149 313 -322 l315 -315 388 386 c213 213 518 516 678 675 366 364 338 313 415 749 44 252 44 258 24 289 -21 32 -65 57 -97 55 -13 -1 -52 -7 -88 -14z"/>
<path d="M815 2041 c-41 -25 -141 -131 -150 -160 -11 -35 7 -68 187 -339 92 -139 168 -260 168 -269 0 -19 -240 -256 -281 -278 -25 -13 -37 -11 -148 26 -85 29 -130 39 -149 34 -15 -3 -62 -42 -104 -85 -118 -119 -133 -89 205 -427 335 -336 308 -323 422 -212 106 102 106 102 56 260 -38 117 -41 133 -28 152 32 49 251 268 273 273 20 5 75 -28 289 -171 169 -112 278 -178 300 -182 32 -5 40 0 106 63 81 79 103 115 94 153 -7 29 -1111 1142 -1157 1167 -35 18 -47 18 -83 -5z"/>
</g>
</svg>