<?xml version="1.0" standalone="no"?>
<!DOCTYPE svg PUBLIC "-//W3C//DTD SVG 20010904//EN"
 "http://www.w3.org/TR/2001/REC-SVG-20010904/DTD/svg10.dtd">
<svg version="1.0" xmlns="http://www.w3.org/2000/svg"
 width="396.000000pt" height="376.000000pt" viewBox="0 0 396.000000 376.000000"
 preserveAspectRatio="xMidYMid meet">

<g transform="translate(0.000000,376.000000) scale(0.100000,-0.100000)"
fill="#000000" stroke="none">
<path d="M1755 3631 c-52 -13 -357 -138 -567 -232 -112 -50 -212 -94 -223 -98
-11 -5 -50 -22 -87 -39 -68 -32 -103 -70 -123 -131 -12 -38 -8 -1859 4 -1905
5 -22 21 -51 36 -65 21 -22 34 -26 78 -25 28 0 174 1 322 1 445 3 416 1 449
31 57 53 54 12 55 1018 1 777 3 937 15 974 8 25 31 90 52 145 20 55 45 121 54
148 9 26 20 50 24 54 3 3 6 30 6 60 0 48 -3 54 -26 63 -28 11 -27 11 -69 1z
m-312 -614 c16 -11 17 -32 15 -192 l-3 -180 -30 -3 c-24 -2 -50 12 -128 69
-62 47 -100 81 -104 97 -10 42 21 88 89 131 35 22 79 51 98 65 42 29 42 29 63
13z m11 -649 c3 -18 5 -104 5 -192 l0 -158 -40 5 c-25 3 -56 18 -82 40 -23 19
-57 42 -75 51 -35 18 -72 69 -72 100 0 36 186 186 231 186 22 0 28 -5 33 -32z
m6 -678 c3 -52 3 -138 0 -190 -5 -94 -5 -95 -32 -98 -36 -4 -98 33 -176 106
-57 53 -63 63 -60 93 2 27 14 42 63 82 78 63 155 108 180 105 18 -3 20 -12 25
-98z"/>
<path d="M2763 2658 c-29 -4 -76 -17 -105 -28 -29 -12 -64 -23 -78 -26 -39 -8
-149 -72 -215 -126 -134 -109 -233 -258 -284 -427 -26 -86 -29 -105 -37 -231
-20 -304 163 -635 430 -779 50 -27 102 -52 116 -55 14 -4 39 -13 55 -21 17 -7
62 -19 100 -27 154 -29 452 5 543 63 25 16 50 29 55 29 15 0 171 121 210 164
62 68 114 148 165 258 40 85 51 122 62 202 26 197 -3 371 -89 541 -51 101
-146 223 -202 257 -15 9 -30 21 -33 27 -11 18 -147 94 -211 119 -125 49 -196
63 -315 66 -63 1 -138 -2 -167 -6z m232 -318 c39 -5 97 -21 130 -35 103 -46
234 -164 279 -252 86 -170 84 -375 -5 -520 -66 -107 -140 -177 -237 -224 -211
-103 -448 -64 -627 102 -56 53 -76 80 -112 156 -53 111 -63 169 -52 277 16
144 61 237 156 326 101 96 172 139 266 165 62 16 107 18 202 5z"/>
<path d="M2790 2251 c-106 -36 -191 -97 -237 -170 -31 -50 -30 -79 4 -87 33
-9 176 -10 318 -4 52 2 66 2 208 -3 142 -5 215 5 224 30 7 18 -37 83 -89 134
-68 66 -118 90 -221 105 -117 18 -140 17 -207 -5z"/>
<path d="M2539 1932 c-71 -5 -83 -23 -83 -133 -1 -87 0 -92 27 -115 28 -24 31
-24 255 -26 590 -4 601 -4 625 21 20 20 22 31 20 113 -3 100 -13 122 -63 133
-30 6 -698 12 -781 7z"/>
<path d="M2710 1600 l-175 -5 -3 -31 c-3 -26 6 -41 49 -88 57 -63 108 -93 213
-125 115 -35 204 -27 322 30 34 16 66 29 71 29 5 0 32 24 61 53 59 60 77 108
45 125 -23 13 -346 19 -583 12z"/>
<path d="M505 1246 c-17 -7 -48 -35 -70 -61 -22 -26 -44 -53 -50 -59 -109
-121 -130 -209 -64 -272 17 -16 49 -54 71 -84 61 -83 95 -109 145 -110 23 0
45 6 50 13 4 6 15 46 23 87 l15 75 209 2 c135 1 212 5 219 12 13 13 313 15
321 3 3 -5 98 -9 212 -10 158 0 210 -4 220 -14 7 -7 17 -42 21 -78 7 -57 11
-66 36 -78 57 -27 112 6 207 128 19 25 42 53 52 64 27 30 41 73 34 108 -6 31
-147 223 -189 257 -9 7 -37 16 -61 18 -42 5 -45 4 -62 -28 -10 -19 -18 -58
-19 -88 0 -49 -3 -56 -27 -66 -18 -7 -207 -10 -588 -10 l-562 0 -19 24 c-13
16 -19 39 -19 76 0 81 -43 118 -105 91z"/>
<path d="M1067 767 c-2 -16 -3 -55 -3 -87 1 -86 12 -92 158 -87 77 2 122 7
132 16 12 10 16 33 16 100 l0 86 -149 0 -149 0 -5 -28z"/>
<path d="M983 521 c-20 -19 -23 -32 -23 -92 0 -60 3 -73 23 -93 13 -13 42 -27
64 -31 41 -6 77 -36 122 -102 31 -45 62 -44 98 4 69 90 86 103 140 112 68 10
79 21 87 84 8 60 -4 101 -32 116 -10 5 -117 13 -238 17 -215 6 -219 6 -241
-15z"/>
</g>
</svg>
