<?xml version="1.0" standalone="no"?>
<!DOCTYPE svg PUBLIC "-//W3C//DTD SVG 20010904//EN"
 "http://www.w3.org/TR/2001/REC-SVG-20010904/DTD/svg10.dtd">
<svg version="1.0" xmlns="http://www.w3.org/2000/svg"
 width="200.000000pt" height="200.000000pt" viewBox="0 0 200.000000 200.000000"
 preserveAspectRatio="xMidYMid meet">

<g transform="translate(0.000000,200.000000) scale(0.100000,-0.100000)"
fill="#000000" stroke="none">
<path d="M910 1905 c-4 -5 -29 -125 -56 -265 -26 -140 -51 -259 -55 -264 -4
-5 -119 37 -256 93 -137 55 -255 101 -264 101 -8 0 -34 -34 -59 -77 l-43 -77
214 -207 214 -208 -30 -29 c-16 -16 -114 -106 -217 -201 l-188 -173 43 -79
c23 -43 49 -79 57 -79 8 0 126 43 262 96 136 53 253 94 259 92 7 -2 33 -112
62 -264 27 -142 53 -263 57 -268 7 -7 180 -10 187 -2 1 1 25 121 53 266 27
144 52 265 54 268 3 3 122 -43 265 -101 188 -76 262 -102 269 -94 30 39 83
139 80 151 -2 7 -96 102 -210 211 -114 108 -204 202 -202 208 3 7 82 82 175
167 93 85 188 174 210 196 l41 41 -43 77 c-24 42 -49 76 -57 76 -8 0 -124 -43
-258 -95 -134 -52 -250 -95 -258 -95 -16 0 -14 -7 -76 319 -22 118 -42 217
-44 219 -9 8 -179 6 -186 -3z m103 -92 c3 -5 28 -134 57 -288 29 -154 56 -284
60 -288 4 -4 129 40 279 99 266 103 327 119 285 73 -11 -12 -112 -107 -226
-212 -115 -105 -208 -194 -208 -198 0 -4 98 -101 218 -215 119 -114 218 -214
220 -221 2 -7 -4 -13 -12 -13 -9 0 -132 47 -273 105 -141 58 -264 105 -273
105 -12 0 -26 -54 -69 -282 -29 -156 -57 -287 -62 -292 -6 -6 -12 -6 -17 0 -5
5 -32 135 -61 289 -29 154 -56 283 -60 287 -4 4 -128 -39 -276 -97 -148 -58
-275 -105 -282 -105 -34 0 4 42 207 230 121 111 220 208 219 214 -1 6 -100
105 -220 219 -120 115 -219 213 -219 218 0 19 39 6 289 -96 142 -58 265 -105
273 -105 11 0 19 17 26 58 6 31 30 156 52 277 23 121 43 226 46 233 4 13 20
16 27 5z"/>
<path d="M497 1822 l-88 -88 3 -90 3 -89 185 0 185 0 0 175 0 175 -100 3 -100
3 -88 -89z m188 -92 l0 -85 -85 0 c-84 0 -85 0 -88 26 -5 45 107 153 153 147
18 -3 20 -10 20 -88z"/>
<path d="M1210 1730 l0 -180 185 0 185 0 0 98 0 97 -83 83 -82 82 -103 0 -102
0 0 -180z m216 28 c51 -49 64 -67 62 -88 -3 -24 -5 -25 -90 -28 l-88 -3 0 84
c0 46 3 87 7 90 18 18 50 2 109 -55z"/>
<path d="M84 1237 c-2 -7 -3 -120 -2 -252 l3 -240 46 1 c44 0 53 5 164 100 65
54 131 111 148 125 l31 26 -153 126 c-139 115 -157 127 -192 127 -23 0 -42 -5
-45 -13z m204 -214 l34 -28 -54 -45 c-98 -83 -88 -88 -88 45 l0 117 38 -30
c20 -17 52 -43 70 -59z"/>
<path d="M1680 1124 l-154 -127 31 -26 c17 -14 83 -71 148 -125 111 -95 120
-100 164 -100 l46 -1 0 250 0 250 -41 3 c-39 3 -47 -2 -194 -124z m140 -130
l0 -115 -27 20 c-16 11 -48 38 -72 59 l-43 38 68 57 c38 31 70 57 72 57 1 0 2
-52 2 -116z"/>
<path d="M417 454 c-4 -4 -7 -46 -7 -93 l0 -86 88 -88 88 -88 100 3 99 3 0
175 0 175 -181 3 c-99 1 -183 -1 -187 -4z m268 -174 l0 -85 -34 2 c-26 2 -46
14 -83 50 -49 48 -65 80 -54 108 5 13 21 15 88 13 l83 -3 0 -85z"/>
<path d="M1210 280 l0 -180 103 0 102 0 83 83 82 82 0 98 0 97 -185 0 -185 0
0 -180z m278 62 c5 -34 -116 -155 -150 -150 -22 3 -23 7 -26 91 l-3 88 88 -3
c84 -3 88 -4 91 -26z"/>
</g>
</svg>
