<svg xmlns="http://www.w3.org/2000/svg" height="12" width="14" viewBox="0 0 576 512">
 <!--!Font Awesome Free 6.5.1 by @fontawesome - https://fontawesome.com License - https://fontawesome.com/license/free Copyright 2023 Fonticons, Inc.-->

 <g class="layer">
  <path d="M319.16,37.66c-4.98,-10.18 -15.5,-16.66 -27.05,-16.66s-21.98,6.48 -27.05,16.66l-60.4,122.48l-134.9,19.63c-11.27,1.67 -20.67,9.44 -24.14,20.09s-0.66,22.4 7.42,30.27l97.89,95.45l-23.11,134.89c-1.88,11.11 2.82,22.4 12.12,28.98s21.61,7.41 31.75,2.13l120.53,-63.42l120.53,63.42c10.15,5.28 22.45,4.54 31.75,-2.13s14,-17.87 12.12,-28.98l-23.2,-134.89l97.89,-95.45c8.08,-7.87 10.99,-19.63 7.42,-30.27s-12.87,-18.42 -24.14,-20.09l-134.99,-19.63l-60.4,-122.48z" fill="#fdc000" id="svg_1"/>
  <path d="M287.9,0c9.2,0 17.6,5.2 21.6,13.5l68.6,141.3l153.2,22.6c9,1.3 16.5,7.6 19.3,16.3s0.5,18.1 -5.9,24.5l-111.1,110.2l26.2,155.6c1.5,9 -2.2,18.1 -9.7,23.5s-17.3,6 -25.3,1.7l-137,-73.2l-136.8,73.1c-8.1,4.3 -17.9,3.7 -25.3,-1.7s-11.2,-14.5 -9.7,-23.5l26.2,-155.6l-111.1,-110.1c-6.5,-6.4 -8.7,-15.9 -5.9,-24.5s10.3,-14.9 19.3,-16.3l153.2,-22.6l68.6,-141.3c4.1,-8.3 12.4,-13.5 21.6,-13.5zm0,79l-52.5,108.2c-3.5,7.1 -10.2,12.1 -18.1,13.3l-118.3,17.4l85.9,85.1c5.5,5.5 8.1,13.3 6.8,21l-20.3,119.7l105.2,-56.2c7.1,-3.8 15.6,-3.8 22.6,0l105.2,56.2l-20.2,-119.6c-1.3,-7.7 1.2,-15.5 6.8,-21l85.9,-85.1l-118.3,-17.5c-7.8,-1.2 -14.6,-6.1 -18.1,-13.3l-52.6,-108.2z" id="svg_2"/>
 </g>
</svg>