<?xml version="1.0" standalone="no"?>
<!DOCTYPE svg PUBLIC "-//W3C//DTD SVG 20010904//EN"
 "http://www.w3.org/TR/2001/REC-SVG-20010904/DTD/svg10.dtd">
<svg version="1.0" xmlns="http://www.w3.org/2000/svg"
 width="338.000000pt" height="324.000000pt" viewBox="0 0 338.000000 324.000000"
 preserveAspectRatio="xMidYMid meet">

<g transform="translate(0.000000,324.000000) scale(0.100000,-0.100000)"
fill="#000000" stroke="none">
<path d="M1669 3195 c-13 -14 -106 -106 -205 -205 -113 -111 -183 -189 -186
-205 -7 -33 16 -67 98 -146 38 -37 101 -100 140 -140 135 -141 179 -179 210
-179 23 0 63 35 232 203 112 111 208 213 213 226 13 34 4 46 -193 244 -244
245 -258 254 -309 202z"/>
<path d="M682 2734 l-32 -13 0 -93 c1 -115 16 -337 25 -360 8 -21 68 -45 170
-68 233 -53 217 -45 319 -145 208 -203 356 -363 356 -385 0 -31 -17 -50 -238
-274 -222 -225 -197 -210 -435 -268 -71 -17 -138 -38 -148 -47 -26 -21 -36
-87 -44 -298 l-8 -172 27 -12 c34 -16 405 4 444 24 21 11 56 79 45 90 -2 2 2
17 8 33 6 16 20 65 30 109 41 169 30 154 264 384 125 122 225 213 240 217 15
4 35 3 45 -2 10 -5 117 -106 237 -224 l219 -215 22 -75 c12 -41 24 -88 27
-105 4 -16 16 -68 27 -113 23 -89 48 -120 86 -108 11 4 31 2 45 -3 14 -5 101
-13 194 -17 206 -8 197 -14 195 124 -2 139 -12 282 -23 317 -13 43 -44 58
-214 99 -82 21 -162 42 -176 47 -14 6 -125 110 -247 233 -160 159 -222 228
-222 245 0 16 58 82 201 229 111 113 214 216 229 229 36 29 56 37 224 79 164
42 189 53 204 91 15 40 33 398 22 429 -9 22 -14 24 -82 24 -83 0 -341 -18
-376 -25 -31 -7 -46 -45 -88 -219 -19 -83 -40 -159 -46 -170 -14 -26 -387
-401 -431 -433 -66 -49 -72 -45 -313 196 -192 193 -220 226 -235 270 -9 28
-14 53 -11 56 3 2 -1 11 -8 20 -7 8 -10 15 -7 15 7 0 -11 68 -46 174 -13 41
-30 74 -43 83 -15 9 -74 17 -175 23 -85 5 -170 11 -190 14 -19 2 -50 -2 -67
-10z"/>
<path d="M376 1905 c-192 -190 -206 -207 -206 -240 0 -38 -2 -36 250 -283 41
-41 94 -93 117 -118 35 -37 49 -44 80 -44 35 0 48 11 240 206 189 191 203 207
203 241 0 35 -13 50 -203 240 -188 188 -206 203 -239 203 -33 0 -51 -15 -242
-205z"/>
<path d="M2795 2098 c-11 -6 -93 -84 -182 -172 -90 -89 -169 -166 -175 -172
-56 -50 -63 -83 -28 -136 22 -36 100 -114 161 -164 8 -6 58 -57 111 -113 103
-107 132 -127 170 -118 13 4 114 98 226 210 152 154 202 210 202 229 0 37 -32
73 -232 269 -190 186 -204 195 -253 167z"/>
<path d="M1656 977 c-52 -42 -322 -313 -353 -353 -36 -48 -36 -69 0 -111 57
-68 396 -403 407 -403 35 0 69 29 288 246 155 154 172 175 172 205 0 31 -20
54 -208 241 -234 233 -235 234 -306 175z"/>
</g>
</svg>
