<?xml version="1.0" standalone="no"?>
<!DOCTYPE svg PUBLIC "-//W3C//DTD SVG 20010904//EN"
 "http://www.w3.org/TR/2001/REC-SVG-20010904/DTD/svg10.dtd">
<svg version="1.0" xmlns="http://www.w3.org/2000/svg"
 width="322.000000pt" height="336.000000pt" viewBox="0 0 322.000000 336.000000"
 preserveAspectRatio="xMidYMid meet">

<g transform="translate(0.000000,336.000000) scale(0.100000,-0.100000)"
fill="#000000" stroke="none">
<path d="M1543 3298 c-30 -15 -34 -29 -42 -145 -10 -143 -10 -143 -164 -143
-135 0 -180 14 -241 74 -47 47 -101 86 -119 86 -36 0 -87 -42 -98 -81 -18 -58
-7 -75 121 -188 l45 -40 -1 -68 c0 -37 -6 -78 -12 -90 -14 -25 -86 -43 -149
-36 -37 4 -46 1 -73 -25 -25 -26 -30 -38 -30 -81 0 -37 6 -56 23 -76 20 -22
31 -25 104 -29 100 -4 133 -21 133 -69 1 -83 24 -125 100 -180 72 -51 160
-107 168 -107 5 0 15 -7 23 -16 7 -8 42 -35 78 -58 111 -72 106 -60 105 -269
l-1 -181 -72 -64 c-67 -60 -71 -66 -71 -107 0 -37 5 -47 40 -79 22 -20 46 -36
53 -36 11 0 64 36 152 104 17 13 51 49 75 81 l45 58 -2 250 c-4 332 11 302
-218 444 -55 35 -116 71 -135 82 -19 11 -48 33 -65 51 -28 29 -30 38 -36 128
-4 53 -2 130 4 169 9 62 15 77 44 105 l34 33 242 1 c356 2 374 -7 369 -170 -4
-102 -17 -126 -80 -147 -49 -16 -209 -7 -249 14 -65 34 -37 61 74 71 88 7 98
11 111 42 10 21 8 28 -16 55 l-27 31 -155 2 c-172 3 -199 -4 -225 -54 -9 -18
-15 -56 -15 -101 0 -70 1 -73 38 -108 64 -61 174 -122 236 -130 71 -10 321 -3
362 10 16 5 57 32 90 60 79 69 126 88 234 98 101 9 114 18 124 83 7 46 -6 83
-36 99 -13 7 -65 16 -116 19 -51 3 -97 11 -103 17 -6 6 -12 40 -12 75 -1 81
17 116 98 191 70 63 84 96 65 151 -14 42 -48 66 -94 66 -33 0 -75 -27 -221
-144 -16 -13 -38 -19 -62 -18 -66 3 -77 3 -143 -3 -62 -5 -67 -4 -90 20 -22
24 -26 39 -32 133 -6 99 -8 108 -33 129 -20 18 -38 23 -78 22 -29 0 -62 -5
-74 -11z"/>
<path d="M810 2050 c-111 -8 -115 -9 -142 -39 -24 -27 -28 -40 -28 -90 0 -33
3 -67 6 -76 13 -32 74 -51 169 -54 104 -2 138 -18 143 -68 5 -47 -16 -59 -114
-67 -79 -6 -91 -10 -136 -42 -88 -65 -91 -77 -89 -454 3 -765 5 -824 23 -852
31 -48 238 -246 275 -263 34 -16 81 -17 592 -15 674 2 709 3 747 23 28 14 105
89 202 198 76 84 73 54 73 686 -1 616 2 592 -59 658 -48 52 -59 57 -157 65
-53 5 -102 14 -110 20 -22 18 -18 55 9 86 22 26 29 28 107 30 100 1 166 18
173 42 4 10 7 53 8 96 2 107 -2 110 -150 117 -132 6 -273 -6 -315 -27 -15 -8
-39 -32 -53 -54 -26 -39 -26 -42 -25 -212 2 -192 9 -220 67 -266 36 -29 114
-51 181 -52 79 0 77 12 77 -494 1 -415 0 -443 -18 -476 -31 -57 -108 -140
-156 -168 -53 -32 -39 -31 -620 -31 -360 -1 -407 1 -430 16 -42 28 -152 146
-166 179 -10 25 -14 135 -16 483 -3 421 -2 451 15 468 12 13 46 21 113 29 93
11 98 13 136 51 37 37 41 46 48 114 5 41 7 76 5 79 -2 3 -6 65 -9 139 -5 123
-7 136 -30 166 -14 18 -40 38 -58 43 -51 16 -162 20 -288 12z"/>
<path d="M300 1669 c-19 -12 -51 -36 -70 -53 -19 -17 -66 -51 -103 -76 -73
-48 -88 -75 -64 -111 31 -43 267 -199 302 -199 13 0 26 10 33 24 12 28 16 357
4 401 -11 39 -52 44 -102 14z"/>
<path d="M2756 1665 c-13 -20 -16 -56 -16 -205 0 -106 4 -189 10 -201 17 -31
70 -25 126 16 27 18 67 46 89 61 99 69 125 94 125 125 0 35 -30 68 -100 112
-25 15 -76 48 -115 72 -38 25 -77 45 -86 45 -9 0 -24 -11 -33 -25z"/>
<path d="M1085 1192 c-59 -4 -92 -29 -99 -76 -10 -60 -13 -551 -4 -583 14 -51
102 -141 151 -154 52 -14 834 -13 886 1 45 12 111 67 143 118 23 37 23 39 21
340 -2 167 -5 308 -8 313 -4 5 -21 17 -38 26 -29 15 -85 17 -517 17 -267 1
-507 0 -535 -2z m831 -202 c33 0 54 -38 54 -100 0 -57 -2 -61 -32 -80 -76 -46
-158 0 -158 87 0 43 73 108 108 97 8 -2 20 -4 28 -4z m-603 -117 c8 -10 18
-30 22 -44 5 -21 0 -31 -30 -58 -42 -36 -66 -35 -102 5 -27 30 -29 56 -7 89
13 20 25 25 59 25 27 0 47 -6 58 -17z m317 -249 c26 -67 -7 -124 -73 -124 -45
0 -67 25 -67 76 0 53 25 74 87 74 37 0 45 -4 53 -26z"/>
<path d="M350 1113 c-40 -12 -83 -37 -130 -76 -29 -23 -63 -49 -76 -58 -115
-76 -112 -120 16 -209 187 -131 201 -137 233 -102 15 16 17 46 17 205 0 219
-9 255 -60 240z"/>
<path d="M2761 1094 c-19 -25 -21 -40 -21 -199 0 -205 7 -235 55 -235 22 0 49
12 81 35 27 19 78 54 114 78 92 62 114 88 105 126 -7 33 -52 77 -101 97 -17 7
-50 29 -74 49 -43 36 -110 75 -129 75 -5 0 -19 -12 -30 -26z"/>
<path d="M2762 519 c-19 -20 -20 -35 -21 -207 0 -102 5 -194 10 -204 20 -37
43 -39 105 -8 32 17 60 34 63 38 4 4 31 25 61 47 80 56 120 96 120 120 0 27
-56 80 -148 142 -152 100 -162 103 -190 72z"/>
<path d="M309 507 c-79 -48 -178 -118 -236 -167 -7 -6 -13 -26 -13 -44 0 -36
26 -65 100 -112 25 -16 63 -43 84 -61 21 -18 59 -40 83 -49 43 -17 45 -17 65
3 23 23 23 23 19 265 -2 125 -5 161 -17 173 -21 21 -42 19 -85 -8z"/>
</g>
</svg>
