<?xml version="1.0" standalone="no"?>
<!DOCTYPE svg PUBLIC "-//W3C//DTD SVG 20010904//EN"
 "http://www.w3.org/TR/2001/REC-SVG-20010904/DTD/svg10.dtd">
<svg version="1.0" xmlns="http://www.w3.org/2000/svg"
 width="1188.000000pt" height="1188.000000pt" viewBox="0 0 1188.000000 1188.000000"
 preserveAspectRatio="xMidYMid meet">

<g transform="translate(0.000000,1188.000000) scale(0.100000,-0.100000)"
fill="#000000" stroke="none">
<path d="M5590 11839 c-290 -25 -359 -32 -500 -54 -404 -63 -837 -172 -1185
-301 -38 -14 -83 -30 -100 -35 -16 -6 -38 -14 -47 -19 -9 -5 -58 -25 -108 -45
-50 -20 -99 -40 -108 -44 -9 -5 -98 -48 -197 -97 -153 -74 -305 -157 -455
-247 -71 -42 -360 -237 -466 -315 -86 -62 -256 -198 -304 -242 -25 -23 -67
-59 -95 -80 -67 -53 -438 -430 -550 -560 -157 -182 -289 -360 -476 -640 -42
-63 -84 -128 -93 -145 -9 -16 -27 -47 -39 -67 -89 -150 -124 -214 -201 -373
-125 -256 -166 -346 -166 -367 0 -7 -6 -22 -14 -33 -7 -11 -17 -31 -21 -45 -4
-14 -13 -38 -21 -55 -18 -41 -53 -142 -64 -187 -6 -20 -16 -52 -24 -70 -12
-31 -24 -67 -75 -243 -23 -78 -44 -161 -71 -280 -10 -44 -27 -123 -39 -175
-31 -138 -58 -305 -88 -555 -24 -202 -26 -251 -26 -600 0 -324 3 -408 21 -570
25 -214 58 -441 73 -498 6 -21 17 -73 25 -115 39 -213 79 -359 184 -687 66
-204 102 -304 125 -347 8 -14 15 -31 15 -38 0 -12 7 -29 57 -140 50 -109 246
-496 277 -545 44 -71 54 -86 72 -120 9 -16 35 -58 58 -91 110 -165 201 -297
210 -308 6 -6 28 -36 49 -66 20 -30 50 -69 65 -87 15 -18 43 -54 62 -80 33
-46 66 -84 119 -142 13 -14 47 -55 76 -91 64 -78 417 -428 495 -491 30 -24 69
-56 85 -72 50 -48 206 -171 313 -247 34 -25 78 -56 96 -70 19 -14 42 -30 52
-37 11 -7 76 -51 147 -98 70 -47 129 -85 131 -85 3 0 40 -22 83 -50 43 -27 98
-60 123 -73 167 -87 367 -187 430 -216 41 -19 92 -42 113 -52 21 -11 43 -19
49 -19 6 0 30 -9 52 -19 43 -21 100 -42 175 -67 24 -7 49 -18 55 -23 6 -5 27
-12 46 -16 19 -4 48 -13 65 -20 16 -7 68 -24 115 -38 529 -156 906 -226 1493
-277 152 -13 401 -14 548 -1 223 20 496 52 599 72 58 10 116 19 130 19 14 0
63 8 110 19 47 11 130 30 185 41 55 12 114 26 130 32 17 6 64 18 105 29 121
29 217 56 230 64 6 4 35 13 63 20 51 13 87 26 232 80 39 14 85 31 104 37 19 5
44 16 55 23 12 7 32 16 46 20 14 4 43 15 65 25 270 121 467 221 656 335 46 28
88 52 93 54 10 4 288 191 356 240 122 86 148 105 180 131 19 16 76 62 125 102
50 39 97 79 105 88 8 9 38 34 65 56 78 61 399 379 478 474 39 47 78 92 87 100
10 8 47 53 83 100 37 47 83 105 102 130 41 51 83 107 105 140 8 13 24 35 36
49 34 44 229 341 282 431 149 254 329 625 399 825 7 22 18 49 23 60 13 27 39
101 54 150 6 22 19 60 28 85 9 25 26 79 38 120 12 41 30 102 40 135 10 33 21
76 25 95 4 19 13 53 20 75 13 38 28 108 74 330 23 110 56 319 65 405 3 30 13
120 22 200 23 207 23 800 1 1000 -9 80 -19 170 -23 200 -19 185 -82 512 -140
730 -8 30 -19 75 -24 100 -5 25 -16 68 -25 95 -9 28 -25 79 -35 115 -11 36
-43 133 -71 215 -74 216 -78 228 -88 246 -5 8 -21 47 -36 85 -56 141 -264 564
-314 638 -15 22 -43 68 -61 101 -19 33 -84 133 -145 223 -60 90 -117 173 -125
186 -48 72 -251 333 -296 381 -11 11 -41 47 -69 80 -82 100 -445 462 -522 521
-39 30 -73 59 -75 63 -2 4 -41 38 -88 75 -47 37 -103 82 -124 99 -49 40 -237
174 -360 256 -24 17 -175 114 -226 147 -88 56 -260 148 -425 228 -99 48 -187
91 -196 96 -8 4 -47 20 -85 34 -38 15 -87 35 -109 45 -22 11 -66 28 -98 40
-31 11 -81 29 -110 41 -29 11 -58 20 -65 20 -7 0 -34 8 -60 19 -63 25 -267 86
-392 117 -327 81 -664 142 -905 163 -66 6 -172 15 -236 21 -133 12 -550 11
-689 -1z m214 -535 c14 -6 16 -70 16 -629 0 -486 -3 -625 -12 -632 -14 -11
-167 -29 -328 -38 -58 -4 -127 -13 -155 -20 -27 -7 -81 -17 -120 -20 -38 -4
-84 -13 -100 -20 -17 -6 -57 -16 -90 -20 -33 -4 -71 -13 -85 -20 -14 -7 -47
-16 -75 -19 -27 -4 -59 -13 -70 -20 -11 -7 -41 -16 -67 -20 -25 -4 -51 -13
-57 -20 -6 -8 -33 -16 -60 -20 -27 -3 -54 -13 -61 -20 -6 -8 -28 -17 -50 -21
-21 -4 -46 -13 -57 -20 -10 -8 -24 -15 -32 -15 -23 0 -361 -164 -446 -216 -22
-13 -51 -30 -65 -37 -14 -6 -41 -22 -60 -35 -19 -12 -42 -27 -50 -32 -8 -5
-31 -20 -50 -33 -19 -13 -42 -26 -50 -30 -8 -4 -42 -27 -75 -52 -33 -25 -71
-53 -85 -62 -27 -19 -115 -88 -142 -113 -10 -8 -29 -24 -43 -35 -15 -11 -33
-26 -41 -34 -9 -7 -52 -44 -97 -82 l-82 -68 -442 445 c-244 245 -443 451 -443
457 0 7 6 19 13 27 17 21 168 161 200 185 31 23 60 47 112 94 37 34 304 237
337 256 9 5 37 25 63 43 25 17 49 32 53 32 4 0 20 11 36 25 16 14 35 25 43 25
7 0 16 6 19 14 3 8 16 17 29 20 13 3 30 12 37 19 7 6 29 20 48 30 69 36 95 50
100 56 3 4 111 59 240 123 212 106 416 196 525 233 22 8 72 26 110 40 39 15
88 31 110 37 22 5 53 16 68 24 16 8 47 17 70 20 23 4 54 13 68 20 15 7 51 18
80 23 30 5 72 16 94 25 22 8 59 15 83 16 23 0 59 7 80 15 20 9 78 20 128 25
51 4 101 13 113 19 11 6 86 16 166 21 80 5 150 12 156 16 27 17 357 32 393 18z
m646 -14 c19 -6 99 -15 178 -20 78 -5 152 -15 163 -21 12 -6 62 -15 113 -19
50 -5 108 -16 128 -25 21 -8 57 -15 80 -15 24 -1 61 -8 83 -16 22 -9 64 -20
94 -25 29 -5 66 -16 82 -24 15 -8 38 -15 49 -15 12 0 42 -8 68 -19 26 -10 85
-30 132 -45 94 -30 206 -71 232 -86 10 -6 22 -10 28 -10 5 0 34 -11 64 -25 30
-14 58 -25 62 -25 15 0 537 -255 559 -273 15 -13 74 -47 135 -80 30 -16 62
-36 71 -43 8 -8 19 -14 23 -14 4 0 22 -11 40 -25 18 -14 36 -25 40 -25 4 0 31
-18 60 -40 29 -22 57 -40 61 -40 5 0 15 -7 24 -15 9 -8 66 -52 126 -97 61 -45
139 -107 175 -137 36 -30 70 -59 75 -63 118 -96 263 -233 268 -253 5 -17 -77
-104 -435 -463 -242 -243 -445 -442 -450 -442 -5 0 -48 34 -96 77 -48 42 -105
91 -127 110 -22 18 -47 39 -55 47 -8 8 -55 44 -105 80 -49 36 -95 70 -100 74
-15 13 -152 104 -215 144 -77 49 -293 168 -365 202 -33 15 -67 32 -75 37 -8 5
-26 14 -40 20 -14 5 -43 19 -66 30 -22 10 -47 19 -55 19 -8 0 -23 6 -34 14
-11 7 -36 17 -55 21 -19 4 -42 13 -50 20 -8 7 -36 16 -62 20 -26 4 -52 13 -58
20 -6 8 -36 17 -65 20 -30 4 -59 13 -65 20 -6 7 -34 16 -63 20 -29 4 -63 13
-77 20 -14 7 -52 16 -85 20 -33 4 -74 13 -92 20 -17 7 -62 16 -100 20 -37 4
-90 13 -118 20 -27 7 -131 18 -230 25 -141 9 -185 15 -203 28 l-23 17 1 619
c0 340 3 623 7 629 8 13 293 2 343 -13z m-3970 -2145 c242 -242 440 -442 440
-445 0 -4 -19 -29 -42 -56 -277 -324 -504 -682 -673 -1059 -12 -27 -32 -71
-44 -98 -11 -26 -21 -53 -21 -60 0 -7 -8 -28 -19 -47 -10 -19 -21 -53 -25 -74
-4 -21 -13 -48 -21 -60 -7 -12 -16 -41 -20 -66 -4 -24 -13 -54 -20 -65 -7 -11
-16 -42 -20 -69 -4 -27 -13 -59 -20 -70 -7 -12 -16 -49 -19 -83 -4 -34 -13
-74 -20 -90 -8 -15 -17 -64 -21 -108 -4 -44 -12 -89 -18 -100 -9 -18 -27 -202
-45 -470 -4 -55 -11 -106 -15 -112 -6 -10 -144 -13 -632 -13 l-625 0 -6 27
c-11 43 4 417 20 490 8 38 17 114 21 171 3 57 11 115 16 130 6 15 15 65 20
112 5 47 16 105 24 130 7 25 17 70 20 100 4 30 14 67 21 82 8 15 14 36 14 47
0 20 7 44 69 241 36 117 110 323 146 410 15 36 33 79 39 95 19 50 77 172 148
313 38 74 68 140 68 148 0 8 4 14 9 14 5 0 16 17 25 38 9 20 28 55 41 77 13
22 32 54 41 70 32 60 50 91 79 134 17 24 35 51 40 60 6 8 27 39 48 68 20 29
37 55 37 59 0 3 10 19 23 34 12 15 31 40 42 55 11 15 39 53 63 83 23 30 42 57
42 61 0 3 17 24 38 46 20 22 66 76 101 120 94 117 153 176 173 173 10 -2 216
-201 458 -443z m7456 382 c16 -18 38 -45 49 -61 11 -15 31 -40 45 -55 63 -69
100 -115 195 -241 90 -121 162 -221 190 -269 6 -9 20 -31 33 -48 12 -17 22
-34 22 -37 0 -4 5 -12 10 -19 22 -25 60 -88 60 -98 0 -5 9 -23 20 -39 11 -17
28 -42 39 -58 10 -15 22 -39 26 -52 4 -14 13 -32 20 -40 7 -8 16 -26 20 -40 4
-14 11 -30 16 -36 21 -27 165 -327 215 -449 74 -182 194 -530 194 -564 0 -11
4 -22 9 -26 5 -3 15 -31 21 -63 6 -31 17 -73 25 -92 7 -20 16 -62 20 -95 4
-33 13 -74 20 -91 7 -17 16 -64 20 -105 4 -41 13 -96 20 -124 8 -27 16 -95 20
-150 3 -55 12 -131 20 -170 14 -78 30 -460 20 -488 -7 -16 -47 -17 -629 -17
-470 0 -625 3 -634 12 -7 7 -12 43 -12 91 0 43 -4 97 -10 120 -5 23 -14 113
-19 200 -5 87 -14 163 -19 170 -6 7 -13 46 -17 87 -3 41 -13 93 -20 115 -8 22
-19 71 -24 108 -5 38 -14 74 -20 81 -6 7 -14 35 -17 62 -4 27 -13 59 -20 71
-7 12 -17 41 -20 65 -4 24 -15 59 -26 78 -10 19 -18 43 -18 54 0 10 -9 37 -19
60 -10 23 -31 75 -47 116 -15 41 -34 82 -41 91 -7 8 -13 21 -13 28 0 7 -9 30
-19 50 -11 20 -38 74 -61 121 -40 79 -84 161 -137 248 -12 21 -29 51 -39 67
-62 109 -274 403 -346 480 -54 58 -68 78 -68 99 0 16 120 142 442 463 481 480
448 455 504 390z m-599 -2474 c-3 -10 -5 -2 -5 17 0 19 2 27 5 18 2 -10 2 -26
0 -35z m40 -125 c-3 -22 -4 -21 -11 4 -5 16 -5 36 0 45 7 16 8 15 11 -4 3 -13
3 -33 0 -45z m46 -95 c7 -38 -7 -116 -16 -88 -12 40 -19 94 -12 104 11 19 22
12 28 -16z m41 -165 c3 -13 6 -67 6 -120 0 -82 3 -99 18 -107 16 -9 17 -44 20
-472 2 -398 0 -469 -13 -516 -9 -30 -19 -94 -22 -141 -3 -48 -11 -101 -19
-119 -7 -18 -16 -54 -20 -80 -4 -26 -14 -68 -24 -93 -9 -25 -20 -63 -24 -84
-4 -21 -13 -48 -21 -60 -7 -12 -16 -39 -20 -60 -4 -22 -13 -49 -21 -60 -8 -11
-14 -27 -14 -36 0 -8 -12 -37 -25 -65 -14 -27 -25 -55 -25 -62 0 -7 -11 -33
-25 -59 -14 -26 -25 -53 -25 -59 0 -7 -7 -18 -15 -25 -8 -7 -15 -20 -15 -30 0
-9 -9 -28 -19 -42 -11 -13 -23 -36 -26 -51 -4 -14 -13 -31 -20 -37 -8 -6 -17
-24 -20 -40 -3 -16 -12 -34 -20 -40 -8 -6 -17 -25 -20 -41 -4 -16 -12 -32 -19
-36 -13 -8 -31 -38 -61 -100 -8 -18 -19 -33 -24 -33 -5 0 -12 -12 -15 -26 -4
-14 -16 -35 -26 -47 -11 -11 -20 -27 -20 -34 0 -7 -4 -13 -9 -13 -5 0 -20 -19
-34 -42 -14 -24 -46 -65 -71 -92 -25 -26 -46 -52 -46 -57 0 -4 -8 -13 -18 -18
-10 -5 -32 -29 -48 -53 -40 -58 -351 -362 -375 -366 -13 -2 -22 5 -29 22 -11
31 -123 142 -150 151 -11 4 -20 10 -20 14 0 8 -93 71 -104 71 -3 0 -14 7 -23
15 -45 39 -82 65 -94 65 -7 0 -19 7 -28 15 -21 20 -90 65 -100 65 -4 0 -16 9
-26 20 -10 11 -24 20 -32 20 -7 0 -21 9 -30 20 -10 11 -25 20 -35 20 -9 0 -22
9 -28 19 -5 11 -23 22 -40 26 -16 4 -30 11 -30 16 0 6 -13 15 -30 20 -16 6
-30 15 -30 20 0 5 -12 15 -27 21 -16 7 -50 27 -76 46 -26 18 -59 37 -73 42
-13 5 -24 13 -24 18 0 4 -16 14 -35 21 -19 7 -35 17 -35 22 0 5 -11 14 -25 19
-14 5 -31 14 -38 20 -32 27 -163 110 -174 110 -7 0 -13 6 -13 14 0 8 -12 17
-27 21 -15 3 -33 15 -41 26 -7 10 -19 19 -27 19 -8 0 -19 9 -25 20 -6 11 -17
20 -25 20 -8 0 -19 9 -25 19 -5 11 -23 22 -40 26 -35 8 -39 21 -9 30 14 5 28
0 43 -14 33 -31 67 -26 109 14 20 19 46 35 58 35 13 0 37 16 58 39 23 25 47
40 66 43 25 2 31 8 33 32 4 36 53 86 84 86 15 0 37 16 63 45 29 32 48 45 67
45 17 0 31 8 38 20 8 16 21 20 58 20 45 0 51 3 107 60 35 35 68 60 80 60 12 0
39 18 60 40 23 23 48 40 62 40 13 0 39 18 65 45 30 32 51 45 70 45 22 0 29 6
34 28 10 49 13 52 40 52 19 0 42 16 84 60 38 40 66 60 81 60 15 0 37 15 58 40
24 28 43 40 61 40 18 0 38 13 65 45 26 29 48 45 64 45 15 0 43 20 81 60 54 56
61 60 102 60 32 0 50 6 63 20 10 11 28 20 40 20 27 0 42 16 47 50 2 18 10 26
29 28 15 2 45 22 70 48 24 24 52 44 64 44 12 0 45 25 80 60 38 38 68 60 82 60
14 0 38 16 60 40 24 26 47 40 63 40 17 0 37 14 59 40 22 26 43 40 58 40 15 0
40 17 67 45 26 26 53 45 66 45 30 0 80 53 80 84 0 13 5 28 10 31 13 8 13 228
0 241 -12 12 -26 204 -17 228 9 23 24 20 31 -6z m-7594 -963 c8 -9 17 -83 25
-188 6 -95 17 -182 23 -193 6 -11 14 -56 18 -100 3 -43 12 -92 20 -109 7 -16
16 -57 19 -90 4 -33 13 -69 20 -81 7 -11 16 -43 20 -70 4 -27 13 -59 21 -71 7
-12 16 -41 20 -65 3 -24 12 -52 19 -64 8 -12 17 -39 21 -60 4 -21 15 -55 25
-74 11 -19 19 -40 19 -47 0 -7 10 -34 22 -60 117 -260 138 -304 215 -438 89
-156 82 -145 162 -270 35 -55 69 -104 75 -110 6 -5 24 -30 41 -55 47 -72 217
-279 289 -353 36 -37 66 -73 66 -80 0 -17 -880 -897 -897 -897 -19 0 -167 152
-218 225 -11 16 -29 38 -41 49 -11 12 -59 71 -107 131 -48 61 -93 117 -101
125 -26 30 -106 138 -106 144 0 4 -18 31 -40 61 -22 30 -40 58 -40 63 0 5 -9
17 -20 27 -11 10 -22 27 -26 38 -4 12 -22 42 -40 68 -18 26 -36 59 -40 73 -3
13 -12 27 -19 30 -7 2 -16 18 -20 35 -4 17 -12 34 -18 38 -18 12 -230 443
-287 583 -12 30 -29 71 -37 90 -19 43 -100 268 -119 330 -7 25 -20 65 -28 90
-8 25 -24 79 -35 120 -12 41 -28 96 -37 123 -8 26 -17 71 -20 100 -3 28 -12
70 -20 92 -8 22 -18 78 -23 125 -5 47 -14 97 -20 112 -5 15 -13 73 -16 130 -3
57 -12 135 -20 173 -18 93 -28 280 -16 303 8 16 48 17 634 14 539 -2 626 -4
637 -17z m9411 -107 c-1 -62 -8 -144 -16 -183 -8 -38 -17 -115 -20 -170 -4
-55 -12 -122 -20 -150 -7 -27 -16 -81 -20 -119 -4 -38 -13 -85 -20 -105 -7
-20 -16 -63 -20 -96 -4 -33 -13 -75 -20 -95 -8 -19 -19 -61 -25 -92 -6 -32
-16 -60 -21 -63 -5 -4 -9 -15 -9 -26 0 -53 -184 -553 -272 -739 -57 -120 -166
-338 -194 -385 -13 -22 -31 -57 -40 -77 -9 -21 -20 -38 -24 -38 -4 0 -14 -17
-23 -37 -9 -21 -26 -51 -37 -68 -10 -16 -29 -46 -40 -65 -40 -68 -153 -235
-188 -280 -10 -11 -25 -30 -34 -43 -57 -73 -156 -196 -176 -217 -35 -37 -46
-51 -77 -95 -16 -22 -36 -47 -45 -56 -106 -112 -144 -149 -155 -149 -7 0 -214
200 -461 445 l-447 445 19 22 c10 13 28 32 39 43 11 11 40 44 65 73 25 30 58
68 74 85 15 18 61 77 102 132 40 55 80 107 89 116 8 9 15 20 15 26 0 5 9 18
20 28 11 10 22 27 26 38 4 11 11 25 16 31 19 23 107 161 108 170 0 5 6 17 14
25 12 14 56 95 121 221 49 95 115 238 115 250 0 6 7 24 15 38 8 15 21 45 29
67 8 22 19 56 26 75 7 19 21 58 31 85 11 28 19 59 19 70 0 11 7 34 16 50 8 17
20 55 26 85 5 30 14 60 20 67 5 6 14 42 19 80 5 37 16 86 24 108 7 22 16 70
19 107 3 36 12 88 20 115 8 27 18 112 21 195 6 120 10 150 24 162 15 14 93 16
637 18 340 2 623 0 628 -4 5 -4 8 -58 7 -120z m-4694 -780 c-3 -8 -6 -5 -6 6
-1 11 2 17 5 13 3 -3 4 -12 1 -19z m-36 -75 c1 -5 2 -61 4 -125 2 -95 0 -118
-11 -118 -11 0 -14 26 -14 125 0 77 4 125 10 125 6 0 11 -3 11 -7z m49 -272
c7 -13 7 -22 0 -26 -15 -9 -30 4 -30 26 0 25 16 25 30 0z m38 -50 c3 -8 -1
-12 -9 -9 -7 2 -15 10 -17 17 -3 8 1 12 9 9 7 -2 15 -10 17 -17z m47 -31 c3
-5 -3 -10 -14 -10 -12 0 -21 5 -21 10 0 6 6 10 14 10 8 0 18 -4 21 -10z
m-1932 -717 c-13 -2 -33 -2 -45 0 -13 2 -3 4 22 4 25 0 35 -2 23 -4z m277 -43
c-9 -4 -31 -5 -50 0 -34 8 -33 8 15 9 34 0 45 -3 35 -9z m295 -40 c-7 -11 -85
-11 -130 0 -22 5 -6 8 53 9 53 1 81 -3 77 -9z m298 -43 c4 -10 42 -16 144 -21
76 -4 174 -13 218 -22 44 -8 140 -19 212 -24 92 -6 140 -14 155 -24 17 -12 48
-16 123 -16 78 -1 109 -5 140 -20 27 -13 62 -19 105 -20 41 0 76 -6 95 -17 17
-9 65 -19 113 -23 52 -4 87 -11 92 -19 4 -8 41 -17 88 -21 44 -5 91 -15 104
-23 13 -8 51 -17 86 -20 34 -3 69 -10 77 -17 8 -7 49 -16 92 -21 42 -6 83 -15
90 -20 6 -6 45 -15 85 -21 40 -5 78 -14 85 -20 6 -5 42 -14 80 -19 37 -5 82
-16 98 -23 17 -7 54 -17 83 -20 70 -9 102 -22 102 -41 0 -9 -13 -21 -29 -26
-16 -6 -32 -17 -35 -25 -3 -8 -12 -14 -19 -14 -8 0 -22 -9 -32 -20 -10 -11
-24 -20 -32 -20 -7 0 -21 -8 -31 -17 -9 -10 -28 -24 -42 -30 -28 -14 -52 -29
-91 -55 -15 -9 -38 -20 -52 -23 -14 -4 -28 -13 -30 -20 -3 -7 -21 -15 -40 -19
-19 -4 -37 -13 -40 -20 -3 -7 -19 -16 -35 -19 -16 -3 -36 -12 -43 -20 -8 -7
-26 -17 -41 -20 -15 -4 -33 -13 -40 -21 -8 -7 -28 -17 -45 -20 -18 -4 -37 -14
-44 -22 -6 -8 -18 -14 -26 -14 -13 0 -91 -31 -190 -76 -17 -8 -37 -14 -45 -14
-7 -1 -31 -8 -53 -16 -122 -46 -298 -93 -415 -110 -52 -7 -115 -19 -140 -25
-150 -36 -1031 -36 -1099 0 -11 6 -66 16 -122 21 -56 5 -108 15 -115 21 -7 5
-42 15 -79 20 -36 5 -76 15 -88 23 -12 8 -41 17 -64 21 -22 3 -49 13 -60 20
-10 8 -26 15 -35 15 -21 0 -166 58 -193 76 -11 8 -27 14 -36 14 -9 0 -27 8
-40 19 -13 10 -38 22 -56 25 -17 4 -34 14 -37 21 -3 8 -23 18 -46 21 -45 7
-51 20 -16 34 28 10 64 3 89 -18 15 -13 21 -13 43 -2 14 8 30 22 35 32 5 10
21 18 35 18 18 0 52 27 129 105 72 73 111 105 127 105 14 0 36 15 58 40 23 27
43 40 60 40 17 0 38 14 63 40 32 35 42 40 80 40 38 0 48 5 87 45 24 25 54 45
65 45 12 0 39 18 60 40 21 22 49 40 60 40 13 0 55 34 113 92 51 50 92 93 92
95 0 2 -21 3 -46 3 -42 0 -154 26 -154 36 0 2 47 4 104 4 78 0 105 -3 109 -13z
m-1828 -437 c3 -5 -1 -10 -9 -10 -9 0 -16 5 -16 10 0 6 4 10 9 10 6 0 13 -4
16 -10z m42 -46 c-3 -3 -12 -4 -19 -1 -8 3 -5 6 6 6 11 1 17 -2 13 -5z m76
-30 c11 -11 -3 -24 -18 -18 -8 4 -12 10 -9 15 6 11 18 12 27 3z m51 -43 c3 -5
-1 -11 -9 -15 -15 -6 -29 7 -18 18 9 9 21 8 27 -3z m73 -57 c-9 -9 -28 6 -21
18 4 6 10 6 17 -1 6 -6 8 -13 4 -17z m5091 -437 c243 -243 442 -448 442 -455
0 -16 -61 -77 -120 -122 -25 -19 -53 -41 -62 -49 -52 -48 -110 -96 -163 -136
-33 -24 -69 -51 -80 -59 -11 -9 -45 -35 -75 -58 -31 -24 -63 -47 -71 -53 -9
-5 -67 -44 -130 -86 -63 -42 -121 -79 -129 -83 -8 -4 -33 -18 -55 -31 -75 -45
-119 -71 -165 -95 -53 -29 -296 -149 -320 -159 -14 -6 -32 -15 -40 -19 -20
-12 -95 -47 -145 -68 -89 -38 -444 -167 -520 -189 -33 -10 -85 -26 -115 -35
-30 -10 -73 -21 -95 -25 -22 -4 -45 -11 -51 -16 -5 -4 -44 -13 -85 -19 -40 -6
-85 -15 -97 -21 -13 -5 -58 -14 -100 -20 -43 -5 -104 -16 -137 -24 -33 -7
-107 -17 -165 -21 -58 -3 -116 -11 -130 -16 -30 -12 -390 -28 -408 -18 -17 9
-18 1236 -1 1257 6 7 28 13 48 13 20 0 52 5 72 10 19 5 103 14 185 20 85 5
166 16 189 24 22 8 61 15 88 16 26 0 73 9 104 20 32 11 73 20 93 20 19 0 55 9
79 20 24 11 54 20 68 20 13 0 45 8 71 19 26 10 65 23 87 29 44 11 86 25 155
53 25 9 72 27 105 40 64 23 413 194 480 235 22 13 54 31 70 39 17 9 50 29 75
45 25 16 52 33 60 37 8 4 33 20 55 35 22 16 58 41 80 56 22 16 56 40 75 53 69
48 160 122 160 131 0 4 6 8 13 8 7 0 23 10 34 23 32 36 107 94 123 96 3 1 204
-198 448 -442z m-5831 368 c26 -24 54 -45 61 -45 6 0 12 -4 12 -8 0 -8 130
-114 190 -155 102 -70 167 -113 180 -120 8 -4 35 -21 60 -37 25 -17 59 -37 75
-45 17 -9 48 -27 70 -40 60 -38 411 -209 480 -235 33 -12 78 -31 101 -41 23
-11 48 -19 57 -19 8 0 34 -9 58 -20 24 -11 53 -20 64 -20 11 0 38 -9 60 -20
22 -11 52 -19 67 -20 15 0 50 -9 78 -20 28 -11 65 -20 83 -20 18 0 58 -9 90
-20 31 -11 78 -20 104 -20 27 -1 66 -8 88 -16 23 -8 104 -19 189 -24 82 -6
166 -15 185 -20 20 -5 61 -10 92 -10 30 0 60 -5 67 -12 18 -18 17 -1254 0
-1261 -21 -7 -420 11 -454 21 -18 6 -76 13 -130 17 -55 3 -124 12 -154 20 -30
7 -82 16 -115 20 -33 4 -93 16 -134 26 -41 10 -84 19 -96 19 -26 0 -160 38
-405 116 -103 33 -153 51 -350 126 -83 32 -217 91 -250 110 -8 5 -23 11 -32
14 -24 8 -355 176 -393 199 -16 10 -41 26 -55 35 -14 9 -36 21 -49 25 -14 4
-29 11 -35 16 -6 5 -80 55 -165 111 -84 57 -163 110 -175 118 -13 8 -38 27
-57 43 -37 30 -90 70 -133 102 -15 11 -42 34 -60 50 -19 17 -49 42 -67 57
-139 114 -169 141 -169 156 0 10 195 213 433 453 342 345 438 436 459 437 19
2 40 -11 75 -43z m790 39 c-3 -3 -12 -4 -19 -1 -8 3 -5 6 6 6 11 1 17 -2 13
-5z m83 -44 c0 -5 -7 -10 -15 -10 -8 0 -15 5 -15 10 0 6 7 10 15 10 8 0 15 -4
15 -10z m75 -40 c3 -5 1 -10 -4 -10 -6 0 -11 5 -11 10 0 6 2 10 4 10 3 0 8 -4
11 -10z m122 -46 c-3 -3 -12 -4 -19 -1 -8 3 -5 6 6 6 11 1 17 -2 13 -5z"/>
</g>
</svg>
