<?xml version="1.0" standalone="no"?>
<!DOCTYPE svg PUBLIC "-//W3C//DTD SVG 20010904//EN"
 "http://www.w3.org/TR/2001/REC-SVG-20010904/DTD/svg10.dtd">
<svg version="1.0" xmlns="http://www.w3.org/2000/svg"
 width="322.000000pt" height="302.000000pt" viewBox="0 0 322.000000 302.000000"
 preserveAspectRatio="xMidYMid meet">

<g transform="translate(0.000000,302.000000) scale(0.100000,-0.100000)"
fill="#000000" stroke="none">
<path d="M1475 2904 c-215 -13 -526 -74 -739 -146 -67 -22 -182 -71 -256 -107
-74 -36 -153 -74 -175 -83 -68 -29 -98 -69 -103 -136 -4 -53 -1 -64 48 -157
29 -55 65 -119 81 -143 16 -23 43 -68 60 -100 17 -31 51 -86 74 -122 23 -36
71 -114 106 -173 35 -60 71 -119 79 -132 8 -13 27 -43 41 -67 53 -88 187 -305
227 -368 22 -36 51 -83 65 -105 13 -22 41 -69 64 -105 73 -118 158 -258 186
-307 15 -26 83 -136 150 -243 141 -224 162 -244 255 -237 41 3 59 10 83 33 31
29 115 153 204 299 61 101 81 134 137 220 25 39 70 111 100 160 81 133 254
411 303 485 23 36 57 92 75 125 18 33 41 69 50 80 9 11 56 85 105 165 48 80
95 156 104 170 25 39 38 62 57 100 17 33 95 158 153 244 24 36 26 48 26 142 0
99 -1 103 -28 128 -15 14 -60 42 -100 62 -135 70 -207 104 -220 104 -7 0 -17
4 -22 9 -11 10 -146 56 -290 99 -255 77 -633 121 -900 106z m209 -453 c3 -4
19 -11 36 -14 20 -5 31 -14 36 -31 3 -13 14 -32 25 -42 10 -9 19 -27 19 -40 0
-13 5 -26 10 -29 14 -9 12 -115 -3 -145 -8 -14 -21 -24 -32 -23 -10 1 -25 -7
-34 -17 -37 -43 -131 -75 -146 -50 -4 6 -11 8 -16 5 -5 -4 -9 -3 -9 2 0 4 -14
16 -31 25 -16 10 -27 13 -24 8 3 -6 1 -10 -5 -10 -6 0 -16 11 -22 25 -6 14
-15 25 -19 25 -25 0 -33 116 -11 157 6 11 21 46 32 77 21 55 29 62 75 57 11
-1 29 3 40 8 17 9 40 15 67 20 4 0 9 -3 12 -8z m-551 -286 c22 -7 46 -23 54
-35 8 -11 24 -29 35 -40 11 -10 18 -26 15 -34 -3 -8 -1 -16 5 -18 5 -2 12 -19
14 -38 2 -19 6 -42 9 -50 6 -20 -51 -119 -73 -127 -9 -3 -23 -11 -30 -16 -7
-6 -49 -12 -93 -13 l-81 -3 -49 52 c-82 87 -89 155 -25 244 57 80 136 108 219
78z m1067 -7 c0 -5 17 -8 38 -8 43 0 62 -14 62 -46 0 -16 6 -21 26 -21 49 0
58 -23 54 -137 -1 -10 -8 -33 -18 -50 -9 -17 -15 -34 -14 -37 0 -4 -8 -15 -19
-25 -17 -15 -19 -16 -14 -1 6 13 -4 11 -47 -10 -29 -15 -63 -25 -75 -24 -13 1
-23 -3 -23 -9 0 -8 -8 -7 -25 4 -18 12 -25 13 -25 4 0 -7 -8 1 -18 17 -11 17
-26 36 -35 44 -11 8 -17 28 -17 53 0 24 -8 50 -22 68 -20 27 -20 31 -6 43 21
16 27 38 16 60 -6 12 -5 17 6 17 8 0 18 -5 21 -10 11 -18 25 0 25 32 0 23 4
29 15 24 8 -3 20 0 26 7 12 13 69 17 69 5z m-175 -198 c-3 -5 -11 -10 -16 -10
-6 0 -7 5 -4 10 3 6 11 10 16 10 6 0 7 -4 4 -10z m-248 -188 c34 -11 75 -27
91 -36 64 -33 127 -132 156 -247 12 -44 12 -64 0 -130 -16 -93 -40 -145 -101
-217 -56 -66 -115 -100 -212 -124 -62 -15 -85 -16 -126 -8 -104 22 -159 48
-218 101 -80 73 -115 147 -128 269 -11 114 -1 151 69 254 52 76 122 127 208
151 65 19 182 13 261 -13z"/>
</g>
</svg>
